<svg width="25" height="17" viewBox="0 0 25 17" fill="none" xmlns="http://www.w3.org/2000/svg">
<path d="M6.93 16.308C5.00867 16.308 3.498 15.582 2.398 14.13C1.31267 12.6487 0.77 10.7053 0.77 8.3C0.77 5.89467 1.31267 3.95867 2.398 2.492C3.498 1.02533 5.00867 0.291999 6.93 0.291999C8.88067 0.291999 10.3913 1.02533 11.462 2.492C12.5473 3.95867 13.09 5.89467 13.09 8.3C13.09 10.7053 12.5473 12.6487 11.462 14.13C10.3913 15.582 8.88067 16.308 6.93 16.308ZM10.076 8.3C10.076 6.65733 9.80467 5.40333 9.262 4.538C8.734 3.67267 7.95667 3.24 6.93 3.24C5.90333 3.24 5.126 3.67267 4.598 4.538C4.07 5.40333 3.806 6.65733 3.806 8.3C3.806 9.94267 4.07 11.1967 4.598 12.062C5.126 12.9127 5.90333 13.338 6.93 13.338C7.95667 13.338 8.734 12.9053 9.262 12.04C9.80467 11.1747 10.076 9.928 10.076 8.3ZM24.3607 16H14.0647V13.734L19.3227 8.322C20.496 7.07533 21.0827 6.04867 21.0827 5.242C21.0827 4.64067 20.892 4.15667 20.5107 3.79C20.144 3.42333 19.6674 3.24 19.0807 3.24C17.9074 3.24 17.0494 3.84133 16.5067 5.044L13.9547 3.548C14.424 2.50667 15.106 1.70733 16.0007 1.15C16.91 0.577999 17.922 0.291999 19.0367 0.291999C20.43 0.291999 21.6254 0.731999 22.6227 1.612C23.62 2.47733 24.1187 3.65067 24.1187 5.132C24.1187 6.73067 23.2754 8.37333 21.5887 10.06L18.5747 13.074H24.3607V16Z" fill="#45C1F2"/>
</svg>
