<svg width="25" height="17" viewBox="0 0 25 17" fill="none" xmlns="http://www.w3.org/2000/svg">
<path d="M6.93 16.308C5.00867 16.308 3.498 15.582 2.398 14.13C1.31267 12.6487 0.77 10.7053 0.77 8.3C0.77 5.89467 1.31267 3.95867 2.398 2.492C3.498 1.02533 5.00867 0.291999 6.93 0.291999C8.88067 0.291999 10.3913 1.02533 11.462 2.492C12.5473 3.95867 13.09 5.89467 13.09 8.3C13.09 10.7053 12.5473 12.6487 11.462 14.13C10.3913 15.582 8.88067 16.308 6.93 16.308ZM10.076 8.3C10.076 6.65733 9.80467 5.40333 9.262 4.538C8.734 3.67267 7.95667 3.24 6.93 3.24C5.90333 3.24 5.126 3.67267 4.598 4.538C4.07 5.40333 3.806 6.65733 3.806 8.3C3.806 9.94267 4.07 11.1967 4.598 12.062C5.126 12.9127 5.90333 13.338 6.93 13.338C7.95667 13.338 8.734 12.9053 9.262 12.04C9.80467 11.1747 10.076 9.928 10.076 8.3ZM23.8824 3.108L21.0004 6.848C22.071 7.156 22.9217 7.69867 23.5524 8.476C24.1977 9.25333 24.5204 10.1773 24.5204 11.248C24.5204 12.832 23.985 14.0713 22.9144 14.966C21.873 15.8607 20.575 16.308 19.0204 16.308C17.803 16.308 16.725 16.0293 15.7864 15.472C14.8477 14.9 14.1657 14.0933 13.7404 13.052L16.3364 11.556C16.703 12.744 17.5977 13.338 19.0204 13.338C19.7977 13.338 20.399 13.1547 20.8244 12.788C21.2644 12.4067 21.4844 11.8933 21.4844 11.248C21.4844 10.6173 21.2644 10.1113 20.8244 9.73C20.399 9.34867 19.7977 9.158 19.0204 9.158H18.3604L17.1944 7.398L20.2304 3.438H14.2024V0.599999H23.8824V3.108Z" fill="#45C1F2"/>
</svg>
