<svg width="80" height="53" viewBox="0 0 80 53" fill="none" xmlns="http://www.w3.org/2000/svg">
<path d="M35.7237 45.12C32.177 49.74 27.207 52.05 20.8137 52.05C14.4203 52.05 9.42701 49.74 5.83367 45.12C2.28701 40.4533 0.513672 34.2467 0.513672 26.5C0.513672 18.7067 2.28701 12.5233 5.83367 7.95C9.38034 3.28333 14.3737 0.949998 20.8137 0.949998C27.207 0.949998 32.177 3.28333 35.7237 7.95C39.317 12.6167 41.1137 18.8 41.1137 26.5C41.1137 34.2 39.317 40.4067 35.7237 45.12ZM20.8137 13.13C15.6337 13.13 13.0437 17.5867 13.0437 26.5C13.0437 35.4133 15.6337 39.87 20.8137 39.87C25.9937 39.87 28.5837 35.4133 28.5837 26.5C28.5837 17.5867 25.9937 13.13 20.8137 13.13ZM59.3137 19.22H62.8137C67.667 19.22 71.657 20.62 74.7837 23.42C78.0037 26.22 79.6137 30.1867 79.6137 35.32C79.6137 40.64 77.887 44.77 74.4337 47.71C70.9803 50.6033 66.687 52.05 61.5537 52.05C57.167 52.05 53.387 51.1167 50.2137 49.25C47.087 47.3833 44.8237 44.63 43.4237 40.99L54.3437 34.76C55.3703 38.1667 57.7737 39.87 61.5537 39.87C63.327 39.87 64.6803 39.4733 65.6137 38.68C66.5937 37.84 67.0837 36.72 67.0837 35.32C67.0837 33.8733 66.5937 32.7533 65.6137 31.96C64.6803 31.1667 63.397 30.77 61.7637 30.77H46.0837L48.1137 2H76.9537V13.97H59.6637L59.3137 19.22Z" fill="#45C1F2"/>
</svg>
