<svg width="81" height="53" viewBox="0 0 81 53" fill="none" xmlns="http://www.w3.org/2000/svg">
<path d="M35.3565 45.12C31.8098 49.74 26.8398 52.05 20.4465 52.05C14.0532 52.05 9.05982 49.74 5.46648 45.12C1.91982 40.4533 0.146484 34.2467 0.146484 26.5C0.146484 18.7067 1.91982 12.5233 5.46648 7.95C9.01315 3.28333 14.0065 0.949998 20.4465 0.949998C26.8398 0.949998 31.8098 3.28333 35.3565 7.95C38.9498 12.6167 40.7465 18.8 40.7465 26.5C40.7465 34.2 38.9498 40.4067 35.3565 45.12ZM20.4465 13.13C15.2665 13.13 12.6765 17.5867 12.6765 26.5C12.6765 35.4133 15.2665 39.87 20.4465 39.87C25.6265 39.87 28.2165 35.4133 28.2165 26.5C28.2165 17.5867 25.6265 13.13 20.4465 13.13ZM75.6601 2L65.3001 17.61C70.0601 18.2633 73.8634 20.13 76.7101 23.21C79.5567 26.2433 80.9801 30.0933 80.9801 34.76C80.9801 39.8467 79.2767 44 75.8701 47.22C72.4167 50.44 67.9367 52.05 62.4301 52.05C56.9234 52.05 52.4434 50.44 48.9901 47.22C45.5834 44 43.8801 39.8467 43.8801 34.76C43.8801 30.98 44.9067 27.5967 46.9601 24.61L61.4501 2H75.6601ZM62.4301 40.57C64.2034 40.57 65.6501 40.0567 66.7701 39.03C67.8901 37.9567 68.4501 36.5333 68.4501 34.76C68.4501 32.8933 67.8901 31.4467 66.7701 30.42C65.6967 29.3933 64.2501 28.88 62.4301 28.88C60.6101 28.88 59.1634 29.3933 58.0901 30.42C56.9701 31.4467 56.4101 32.8933 56.4101 34.76C56.4101 36.58 56.9467 38.0033 58.0201 39.03C59.1401 40.0567 60.6101 40.57 62.4301 40.57Z" fill="#45C1F2"/>
</svg>
