<svg width="20" height="44" viewBox="0 0 20 44" fill="none" xmlns="http://www.w3.org/2000/svg">
<path d="M19.5213 0.363636H20.5213V-0.636364H19.5213V0.363636ZM19.5213 44V45H20.5213V44H19.5213ZM10.2955 44H9.29545V45H10.2955V44ZM10.2955 9.12074H11.2955V8.12074H10.2955V9.12074ZM10.0398 9.12074V8.12074H9.75225L9.50864 8.27345L10.0398 9.12074ZM0.046875 15.3849H-0.953125V17.192L0.57801 16.2322L0.046875 15.3849ZM0.046875 7.20312L-0.488058 6.35823L-0.953125 6.65268V7.20312H0.046875ZM10.8494 0.363636V-0.636364H10.5595L10.3145 -0.481258L10.8494 0.363636ZM18.5213 0.363636V44H20.5213V0.363636H18.5213ZM19.5213 43H10.2955V45H19.5213V43ZM11.2955 44V9.12074H9.29545V44H11.2955ZM10.2955 8.12074H10.0398V10.1207H10.2955V8.12074ZM9.50864 8.27345L-0.48426 14.5377L0.57801 16.2322L10.5709 9.96803L9.50864 8.27345ZM1.04688 15.3849V7.20312H-0.953125V15.3849H1.04688ZM0.581808 8.04802L11.3844 1.20853L10.3145 -0.481258L-0.488058 6.35823L0.581808 8.04802ZM10.8494 1.36364H19.5213V-0.636364H10.8494V1.36364Z" fill="black"/>
</svg>
