<svg width="32" height="45" viewBox="0 0 32 45" fill="none" xmlns="http://www.w3.org/2000/svg">
<path d="M0.536932 45H-0.463068V46H0.536932V45ZM0.536932 38.3523L-0.142476 37.6185L-0.463068 37.9154V38.3523H0.536932ZM16.0696 23.9702L16.749 24.7039L16.7571 24.6964L16.765 24.6888L16.0696 23.9702ZM19.3935 20.5185L18.646 19.8541L18.6409 19.86L19.3935 20.5185ZM21.4602 17.5142L22.3624 17.9457L22.3648 17.9406L21.4602 17.5142ZM21.2898 10.9943L20.4403 11.522L20.444 11.5278L21.2898 10.9943ZM18.9034 8.84233L18.4512 9.73429L18.4613 9.73927L18.9034 8.84233ZM9.67756 11.2074L10.5592 11.6793V11.6793L9.67756 11.2074ZM8.8679 14.8082V15.8082H9.8679V14.8082H8.8679ZM0.110795 14.8082H-0.889205V15.8082H0.110795V14.8082ZM2.04972 7.37216L2.90157 7.89594L2.04972 7.37216ZM7.48295 2.4929L7.04012 1.59629H7.04012L7.48295 2.4929ZM23.6974 2.42898L23.2658 3.33104L23.2724 3.33417L23.6974 2.42898ZM29.1307 6.98864L28.2977 7.54193H28.2977L29.1307 6.98864ZM30.0895 18.5582L29.1633 18.1812L29.1604 18.1883L30.0895 18.5582ZM26.6591 23.9062L27.4223 24.5524L27.4246 24.5497L26.6591 23.9062ZM19.6918 30.9162L19.0187 30.1766L19.0051 30.189L18.9919 30.202L19.6918 30.9162ZM13.321 37.1591L12.6211 36.4449L12.321 36.7389V37.1591H13.321ZM13.321 37.4574H12.321V38.4574H13.321V37.4574ZM31.6449 37.4574H32.6449V36.4574H31.6449V37.4574ZM31.6449 45V46H32.6449V45H31.6449ZM1.53693 45V38.3523H-0.463068V45H1.53693ZM1.21634 39.086L16.749 24.7039L15.3902 23.2364L-0.142476 37.6185L1.21634 39.086ZM16.765 24.6888C18.0995 23.3973 19.2279 22.2263 20.146 21.177L18.6409 19.86C17.7693 20.8561 16.6817 21.9862 15.3742 23.2516L16.765 24.6888ZM20.1409 21.1828C21.0969 20.1073 21.8443 19.0288 22.3624 17.9457L20.5581 17.0827C20.1386 17.9598 19.5083 18.8841 18.6461 19.8541L20.1409 21.1828ZM22.3648 17.9406C22.8993 16.8067 23.1634 15.5878 23.1634 14.2969H21.1634C21.1634 15.3071 20.9586 16.2331 20.5557 17.0878L22.3648 17.9406ZM23.1634 14.2969C23.1634 12.8625 22.8349 11.5695 22.1356 10.4608L20.444 11.5278C20.9094 12.2657 21.1634 13.1744 21.1634 14.2969H23.1634ZM22.1392 10.4666C21.4563 9.3673 20.5184 8.52353 19.3456 7.94539L18.4613 9.73927C19.3055 10.1554 19.9585 10.7463 20.4403 11.522L22.1392 10.4666ZM19.3556 7.95043C18.1896 7.3592 16.8879 7.07528 15.473 7.07528V9.07528C16.615 9.07528 17.6002 9.30273 18.4512 9.73423L19.3556 7.95043ZM15.473 7.07528C14.0012 7.07528 12.6667 7.37361 11.5016 8.00609L12.4558 9.7638C13.2793 9.31673 14.2744 9.07528 15.473 9.07528V7.07528ZM11.5016 8.00609C10.3336 8.64017 9.42678 9.55674 8.79589 10.7355L10.5592 11.6793C11.0079 10.841 11.6352 10.2093 12.4558 9.7638L11.5016 8.00609ZM8.79589 10.7355C8.1633 11.9175 7.8679 13.2869 7.8679 14.8082H9.8679C9.8679 13.5455 10.1123 12.5144 10.5592 11.6793L8.79589 10.7355ZM8.8679 13.8082H0.110795V15.8082H8.8679V13.8082ZM1.1108 14.8082C1.1108 12.1085 1.72021 9.81727 2.90157 7.89594L1.19786 6.84838C-0.206003 9.13159 -0.889205 11.7977 -0.889205 14.8082H1.1108ZM2.90157 7.89594C4.09032 5.96259 5.75561 4.46136 7.92579 3.3895L7.04012 1.59629C4.55121 2.82557 2.59434 4.57719 1.19786 6.84838L2.90157 7.89594ZM7.92579 3.3895C10.0961 2.3176 12.6247 1.76704 15.5369 1.76704V-0.232956C12.3696 -0.232956 9.52895 0.367056 7.04012 1.59629L7.92579 3.3895ZM15.5369 1.76704C18.5445 1.76704 21.1113 2.30004 23.2658 3.33102L24.1291 1.52694C21.6529 0.342007 18.7794 -0.232956 15.5369 -0.232956V1.76704ZM23.2724 3.33417C25.4537 4.3583 27.1164 5.76354 28.2977 7.54193L29.9637 6.43534C28.5597 4.32168 26.6003 2.68715 24.1224 1.52378L23.2724 3.33417ZM28.2977 7.54193C29.473 9.31137 30.0696 11.3459 30.0696 13.679H32.0696C32.0696 10.9836 31.3736 8.55795 29.9637 6.43534L28.2977 7.54193ZM30.0696 13.679C30.0696 15.1908 29.7705 16.6895 29.1633 18.1812L31.0157 18.9353C31.7153 17.2167 32.0696 15.4626 32.0696 13.679H30.0696ZM29.1604 18.1883C28.5749 19.6586 27.5024 21.3489 25.8936 23.2628L27.4246 24.5497C29.1112 22.5432 30.3256 20.6681 31.0185 18.9282L29.1604 18.1883ZM25.8959 23.2601C24.2875 25.1596 22.0001 27.4636 19.0187 30.1766L20.3648 31.6558C23.3777 28.9142 25.7352 26.5449 27.4223 24.5524L25.8959 23.2601ZM18.9919 30.202L12.6211 36.4449L14.0209 37.8733L20.3917 31.6304L18.9919 30.202ZM12.321 37.1591V37.4574H14.321V37.1591H12.321ZM13.321 38.4574H31.6449V36.4574H13.321V38.4574ZM30.6449 37.4574V45H32.6449V37.4574H30.6449ZM31.6449 44H0.536932V46H31.6449V44Z" fill="black"/>
</svg>
