<svg width="34" height="46" viewBox="0 0 34 46" fill="none" xmlns="http://www.w3.org/2000/svg">
<path d="M8.16477 43.956L7.75571 44.8685L7.76203 44.8713L8.16477 43.956ZM2.3054 39.3963L1.49766 39.9859L1.50257 39.9925L2.3054 39.3963ZM0.110795 32.6634V31.6634H-0.906105L-0.889064 32.6801L0.110795 32.6634ZM9.40057 32.6634L10.3991 32.6101L10.3487 31.6634H9.40057V32.6634ZM10.4446 35.4759L9.65972 36.0955L9.66573 36.1031L9.67188 36.1106L10.4446 35.4759ZM13.044 37.3295L12.6663 38.2555H12.6664L13.044 37.3295ZM20.4162 37.2443L19.9979 36.336L20.4162 37.2443ZM22.9517 35.1776L23.7734 35.7475L22.9517 35.1776ZM22.8878 29.0412L22.0698 29.6164L22.0749 29.6237L22.0802 29.6309L22.8878 29.0412ZM20.1179 26.9105L19.724 27.8297L19.7279 27.8313L20.1179 26.9105ZM11.7869 26.1435H10.7869V27.1435H11.7869V26.1435ZM11.7869 19.3679V18.3679H10.7869V19.3679H11.7869ZM19.5426 18.6435L19.1342 17.7306L19.1297 17.7327L19.5426 18.6435ZM22.0568 16.6406L22.8761 17.2141L22.8805 17.2077L22.0568 16.6406ZM22.1634 10.7386L21.3097 11.2595L21.3149 11.268L21.3203 11.2765L22.1634 10.7386ZM19.9901 8.77841L19.5374 9.67009L19.5428 9.67284L19.9901 8.77841ZM13.321 8.7571L13.7119 9.67761L13.7225 9.67297L13.321 8.7571ZM10.8281 10.6534L11.6248 11.2578L11.6248 11.2578L10.8281 10.6534ZM9.8267 13.5511V14.5511H10.789L10.826 13.5896L9.8267 13.5511ZM0.984375 13.5511L-0.0154815 13.5342L-0.0327177 14.5511H0.984375V13.5511ZM3.13636 6.90341L3.94562 7.49087H3.94562L3.13636 6.90341ZM8.76136 2.40767L9.17764 3.31691L9.18008 3.31579L8.76136 2.40767ZM24.6989 2.40767L25.1347 1.50765L24.6989 2.40767ZM29.9616 6.83949L29.1315 7.39713L29.1365 7.4044L29.9616 6.83949ZM31.8366 13.0611L30.8366 13.0549L30.8367 13.0669L31.8366 13.0611ZM29.5568 19.1761L28.8279 18.4916L28.8247 18.495L29.5568 19.1761ZM23.6122 22.2869L23.4348 21.3028L22.6122 21.451V22.2869H23.6122ZM23.6122 22.6278H22.6122V23.5077L23.4849 23.6197L23.6122 22.6278ZM30.9418 25.973L30.2065 26.6508L30.212 26.6568L30.9418 25.973ZM33.456 32.7486L32.4559 32.7433L32.456 32.7543L33.456 32.7486ZM31.304 39.375L30.504 38.775L30.5012 38.7788L31.304 39.375ZM25.3594 43.9347L24.958 43.0187H24.958L25.3594 43.9347ZM16.6662 44.5966C13.5995 44.5966 10.9065 44.0698 8.56751 43.0406L7.76203 44.8713C10.3947 46.0296 13.3692 46.5966 16.6662 46.5966V44.5966ZM8.57383 43.0435C6.23843 41.9966 4.42855 40.578 3.10822 38.8001L1.50257 39.9925C3.05156 42.0783 5.14793 43.6995 7.75572 44.8685L8.57383 43.0435ZM3.11311 38.8067C1.82119 37.0368 1.15002 34.9952 1.11066 32.6466L-0.889064 32.6801C-0.843198 35.4168 -0.051307 37.8638 1.49768 39.9859L3.11311 38.8067ZM0.110795 33.6634H9.40057V31.6634H0.110795V33.6634ZM8.40199 32.7166C8.46941 33.9808 8.88789 35.1178 9.65972 36.0955L11.2295 34.8562C10.7229 34.2145 10.4454 33.4766 10.3991 32.6101L8.40199 32.7166ZM9.67188 36.1106C10.444 37.0506 11.4536 37.7608 12.6663 38.2555L13.4217 36.4036C12.4753 36.0176 11.752 35.492 11.2173 34.8411L9.67188 36.1106ZM12.6664 38.2555C13.8832 38.7518 15.2287 38.9901 16.6875 38.9901V36.9901C15.4474 36.9901 14.364 36.788 13.4217 36.4036L12.6664 38.2555ZM16.6875 38.9901C18.212 38.9901 19.6019 38.7203 20.8345 38.1526L19.9979 36.336C19.0714 36.7627 17.9755 36.9901 16.6875 36.9901V38.9901ZM20.8345 38.1526C22.0582 37.5891 23.05 36.7906 23.7734 35.7475L22.13 34.6077C21.6318 35.3259 20.9333 35.9052 19.9979 36.336L20.8345 38.1526ZM23.7734 35.7475C24.509 34.6869 24.8679 33.4692 24.8679 32.1307H22.8679C22.8679 33.0933 22.616 33.9069 22.13 34.6077L23.7734 35.7475ZM24.8679 32.1307C24.8679 30.7655 24.4805 29.5267 23.6954 28.4515L22.0802 29.6309C22.6019 30.3455 22.8679 31.1663 22.8679 32.1307H24.8679ZM23.7058 28.466C22.941 27.3783 21.8561 26.5607 20.5079 25.9897L19.7279 27.8313C20.7945 28.2831 21.5562 28.8859 22.0698 29.6164L23.7058 28.466ZM20.5118 25.9914C19.1655 25.4144 17.6046 25.1435 15.8565 25.1435V27.1435C17.4039 27.1435 18.6839 27.3839 19.724 27.8297L20.5118 25.9914ZM15.8565 25.1435H11.7869V27.1435H15.8565V25.1435ZM12.7869 26.1435V19.3679H10.7869V26.1435H12.7869ZM11.7869 20.3679H15.8565V18.3679H11.7869V20.3679ZM15.8565 20.3679C17.3643 20.3679 18.7382 20.1061 19.9555 19.5542L19.1297 17.7327C18.2164 18.1467 17.1329 18.3679 15.8565 18.3679V20.3679ZM19.951 19.5563C21.1726 19.0098 22.1621 18.234 22.8761 17.2141L21.2376 16.0672C20.7583 16.7518 20.0717 17.3112 19.1342 17.7306L19.951 19.5563ZM22.8805 17.2077C23.6027 16.1588 23.9517 14.9483 23.9517 13.6151H21.9517C21.9517 14.583 21.7041 15.3895 21.2332 16.0735L22.8805 17.2077ZM23.9517 13.6151C23.9517 12.3542 23.6464 11.204 23.0064 10.2008L21.3203 11.2765C21.7315 11.921 21.9517 12.6884 21.9517 13.6151H23.9517ZM23.017 10.2178C22.4012 9.20857 21.5308 8.43073 20.4373 7.88398L19.5428 9.67284C20.3243 10.0636 20.9028 10.5926 21.3097 11.2595L23.017 10.2178ZM20.4428 7.88674C19.3545 7.33426 18.1143 7.07528 16.7514 7.07528V9.07528C17.8601 9.07528 18.779 9.28506 19.5374 9.67008L20.4428 7.88674ZM16.7514 7.07528C15.3777 7.07528 14.0957 7.32567 12.9195 7.84123L13.7225 9.67297C14.6202 9.27944 15.6252 9.07528 16.7514 9.07528V7.07528ZM12.9302 7.83666C11.7475 8.33889 10.7711 9.07397 10.0314 10.049L11.6248 11.2578C12.1351 10.5851 12.8207 10.056 13.7119 9.67755L12.9302 7.83666ZM10.0314 10.049C9.27335 11.0483 8.87734 12.2154 8.82744 13.5127L10.826 13.5896C10.8613 12.671 11.1329 11.9062 11.6248 11.2578L10.0314 10.049ZM9.8267 12.5511H0.984375V14.5511H9.8267V12.5511ZM1.98423 13.5681C2.02359 11.2458 2.68172 9.23195 3.94562 7.49087L2.32711 6.31595C0.806913 8.4101 0.0303857 10.828 -0.0154815 13.5342L1.98423 13.5681ZM3.94562 7.49087C5.22718 5.72545 6.96102 4.33175 9.17764 3.31691L8.34509 1.49843C5.8458 2.64268 3.82964 4.24614 2.32711 6.31595L3.94562 7.49087ZM9.18008 3.31579C11.4035 2.29061 13.9351 1.76704 16.794 1.76704V-0.232956C13.687 -0.232956 10.8635 0.337231 8.34265 1.49955L9.18008 3.31579ZM16.794 1.76704C19.6842 1.76704 22.1649 2.2916 24.263 3.30769L25.1347 1.50765C22.7158 0.336233 19.9265 -0.232956 16.794 -0.232956V1.76704ZM24.263 3.30768C26.3816 4.33367 27.9917 5.70033 29.1316 7.39711L30.7917 6.28186C29.4316 4.25706 27.5332 2.66917 25.1347 1.50765L24.263 3.30768ZM29.1365 7.4044C30.2822 9.07789 30.8497 10.9514 30.8367 13.0549L32.8366 13.0672C32.8521 10.5685 32.1695 8.29427 30.7868 6.27457L29.1365 7.4044ZM30.8367 13.0669C30.8495 15.279 30.1699 17.0626 28.8279 18.4916L30.2858 19.8607C32.0119 18.0227 32.8522 15.7295 32.8366 13.0553L30.8367 13.0669ZM28.8247 18.495C27.4687 19.9524 25.6904 20.8963 23.4348 21.3028L23.7896 23.2711C26.4204 22.7969 28.6052 21.6669 30.2889 19.8573L28.8247 18.495ZM22.6122 22.2869V22.6278H24.6122V22.2869H22.6122ZM23.4849 23.6197C26.5349 24.0111 28.7335 25.0529 30.2065 26.6508L31.677 25.2952C29.7978 23.2567 27.11 22.0685 23.7395 21.636L23.4849 23.6197ZM30.212 26.6568C31.7098 28.2552 32.469 30.2589 32.456 32.7433L34.456 32.7538C34.4714 29.8121 33.5544 27.2988 31.6715 25.2893L30.212 26.6568ZM32.456 32.7543C32.469 35.0287 31.8178 37.0233 30.504 38.775L32.104 39.975C33.6879 37.8631 34.4714 35.4401 34.456 32.7429L32.456 32.7543ZM30.5012 38.7788C29.1847 40.5515 27.3509 41.9702 24.958 43.0187L25.7607 44.8506C28.4247 43.6832 30.554 42.0622 32.1068 39.9712L30.5012 38.7788ZM24.958 43.0187C22.5772 44.062 19.8201 44.5966 16.6662 44.5966V46.5966C20.0464 46.5966 23.0847 46.0232 25.7607 44.8506L24.958 43.0187Z" fill="black"/>
</svg>
