<svg width="32" height="41" viewBox="0 0 32 41" fill="none" xmlns="http://www.w3.org/2000/svg">
<path d="M0.352017 33.2966H-0.547493V34.1961H0.352017V33.2966ZM0.352017 26.7611L-0.407421 26.2791L-0.547493 26.4998V26.7611H0.352017ZM16.7387 0.944948V0.0454388H16.2442L15.9792 0.462898L16.7387 0.944948ZM22.3734 0.944948H23.2729V0.0454388H22.3734V0.944948ZM22.3734 9.99115V10.8907H23.2729V9.99115H22.3734ZM19.0386 9.99115V9.09164H18.5429L18.2781 9.51065L19.0386 9.99115ZM8.70826 26.3395L7.94784 25.859L7.80875 26.0791V26.3395H8.70826ZM8.70826 26.6461H7.80875V27.5457H8.70826V26.6461ZM31.9946 26.6461H32.8941V25.7466H31.9946V26.6461ZM31.9946 33.2966V34.1961H32.8941V33.2966H31.9946ZM19.1919 40.1963H18.2924V41.0958H19.1919V40.1963ZM19.1919 31.3034L18.2936 31.2558L18.2924 31.2796V31.3034H19.1919ZM19.3452 28.4094L20.2435 28.457L20.2447 28.4332V28.4094H19.3452ZM19.3452 0.944948V0.0454388H18.4457V0.944948H19.3452ZM27.1265 0.944948H28.026V0.0454388H27.1265V0.944948ZM27.1265 40.1963V41.0958H28.026V40.1963H27.1265ZM1.25153 33.2966V26.7611H-0.547493V33.2966H1.25153ZM1.11146 27.2432L17.4981 1.427L15.9792 0.462898L-0.407421 26.2791L1.11146 27.2432ZM16.7387 1.84446H22.3734V0.0454388H16.7387V1.84446ZM21.4739 0.944948V9.99115H23.2729V0.944948H21.4739ZM22.3734 9.09164H19.0386V10.8907H22.3734V9.09164ZM18.2781 9.51065L7.94784 25.859L9.46868 26.82L19.799 10.4717L18.2781 9.51065ZM7.80875 26.3395V26.6461H9.60777V26.3395H7.80875ZM8.70826 27.5457H31.9946V25.7466H8.70826V27.5457ZM31.0951 26.6461V33.2966H32.8941V26.6461H31.0951ZM31.9946 32.3971H0.352017V34.1961H31.9946V32.3971ZM20.0914 40.1963V31.3034H18.2924V40.1963H20.0914ZM20.0901 31.351L20.2435 28.457L18.447 28.3618L18.2936 31.2558L20.0901 31.351ZM20.2447 28.4094V0.944948H18.4457V28.4094H20.2447ZM19.3452 1.84446H27.1265V0.0454388H19.3452V1.84446ZM26.227 0.944948V40.1963H28.026V0.944948H26.227ZM27.1265 39.2968H19.1919V41.0958H27.1265V39.2968Z" fill="black"/>
</svg>
