<svg width="37" height="44" viewBox="0 0 37 44" fill="none" xmlns="http://www.w3.org/2000/svg">
<path d="M0.87642 36.3295H-0.123579V37.3295H0.87642V36.3295ZM0.87642 29.0639L0.0321403 28.528L-0.123579 28.7733V29.0639H0.87642ZM19.0938 0.363636V-0.636364H18.5441L18.2495 -0.172266L19.0938 0.363636ZM25.358 0.363636H26.358V-0.636364H25.358V0.363636ZM25.358 10.4205V11.4205H26.358V10.4205H25.358ZM21.6506 10.4205V9.42045H21.0995L20.8052 9.88627L21.6506 10.4205ZM10.1662 28.5952L9.32082 28.061L9.16619 28.3057V28.5952H10.1662ZM10.1662 28.9361H9.16619V29.9361H10.1662V28.9361ZM36.054 28.9361H37.054V27.9361H36.054V28.9361ZM36.054 36.3295V37.3295H37.054V36.3295H36.054ZM21.821 44H20.821V45H21.821V44ZM21.821 34.1136L20.8224 34.0607L20.821 34.0872V34.1136H21.821ZM21.9915 30.8963L22.9901 30.9492L22.9915 30.9228V30.8963H21.9915ZM21.9915 0.363636V-0.636364H20.9915V0.363636H21.9915ZM30.642 0.363636H31.642V-0.636364H30.642V0.363636ZM30.642 44V45H31.642V44H30.642ZM1.87642 36.3295V29.0639H-0.123579V36.3295H1.87642ZM1.7207 29.5998L19.938 0.899536L18.2495 -0.172266L0.0321403 28.528L1.7207 29.5998ZM19.0938 1.36364H25.358V-0.636364H19.0938V1.36364ZM24.358 0.363636V10.4205H26.358V0.363636H24.358ZM25.358 9.42045H21.6506V11.4205H25.358V9.42045ZM20.8052 9.88627L9.32082 28.061L11.0116 29.1293L22.4959 10.9546L20.8052 9.88627ZM9.16619 28.5952V28.9361H11.1662V28.5952H9.16619ZM10.1662 29.9361H36.054V27.9361H10.1662V29.9361ZM35.054 28.9361V36.3295H37.054V28.9361H35.054ZM36.054 35.3295H0.87642V37.3295H36.054V35.3295ZM22.821 44V34.1136H20.821V44H22.821ZM22.8196 34.1665L22.9901 30.9492L20.9929 30.8434L20.8224 34.0607L22.8196 34.1665ZM22.9915 30.8963V0.363636H20.9915V30.8963H22.9915ZM21.9915 1.36364H30.642V-0.636364H21.9915V1.36364ZM29.642 0.363636V44H31.642V0.363636H29.642ZM30.642 43H21.821V45H30.642V43Z" fill="black"/>
</svg>
