<svg width="29" height="41" viewBox="0 0 29 41" fill="none" xmlns="http://www.w3.org/2000/svg">
<path d="M6.95641 39.238L6.57197 40.0512L6.57387 40.0521L6.95641 39.238ZM1.93499 35.1174L2.66912 34.5976L1.93499 35.1174ZM-0.000741243 29.0994V28.1998H-0.920809L-0.900022 29.1197L-0.000741243 29.0994ZM8.04885 29.0994L8.94681 29.0465L8.897 28.1998H8.04885V29.0994ZM9.96542 32.7983L10.5255 32.0945L9.96542 32.7983ZM17.6509 33.3541L18.1004 34.1333L18.1035 34.1315L17.6509 33.3541ZM20.0082 30.9201L19.2197 30.4873L19.2178 30.4907L20.0082 30.9201ZM19.9891 23.6755L19.2005 24.1082L19.2046 24.1155L19.9891 23.6755ZM17.5934 21.2223L17.145 22.002L17.5934 21.2223ZM14.086 20.3215L14.0948 19.422H14.086V20.3215ZM10.732 21.0306L10.373 20.2058L10.3695 20.2074L10.732 21.0306ZM8.22134 22.9663L8.06266 23.8517L8.6145 23.9506L8.94635 23.4988L8.22134 22.9663ZM0.842549 21.6439L-0.0533543 21.5634L-0.12705 22.384L0.683867 22.5293L0.842549 21.6439ZM2.70162 0.944948V0.0454388H1.87928L1.80572 0.864483L2.70162 0.944948ZM26.6971 0.944948H27.5966V0.0454388H26.6971V0.944948ZM26.6971 7.7296V8.62911H27.5966V7.7296H26.6971ZM9.54377 7.7296V6.8301H8.73241L8.64903 7.63717L9.54377 7.7296ZM8.52799 17.5616L7.63325 17.4692L7.53076 18.4611H8.52799V17.5616ZM8.75798 17.5616V18.4611H9.2223L9.49124 18.0826L8.75798 17.5616ZM11.882 15.1467L12.257 15.9643L11.882 15.1467ZM22.8831 15.8559L23.3459 15.0845L22.8831 15.8559ZM27.272 20.4365L26.4847 20.8715L26.486 20.8737L27.272 20.4365ZM28.8628 27.1061L27.9633 27.1016L27.9633 27.1105L28.8628 27.1061ZM27.0229 34.1591L26.2524 33.6949L26.2516 33.6963L27.0229 34.1591ZM21.8673 38.9888L22.288 39.7839L22.2897 39.783L21.8673 38.9888ZM14.201 39.8334C11.604 39.8334 9.32296 39.3561 7.33894 38.4239L6.57387 40.0521C8.83186 41.1131 11.3806 41.6324 14.201 41.6324V39.8334ZM7.34084 38.4248C5.35992 37.4883 3.81142 36.2109 2.66912 34.5976L1.20087 35.6372C2.53733 37.5247 4.33644 38.9944 6.57197 40.0512L7.34084 38.4248ZM2.66912 34.5976C1.53915 33.0017 0.945831 31.1717 0.898539 29.079L-0.900022 29.1197C-0.845096 31.5501 -0.147928 33.7322 1.20087 35.6372L2.66912 34.5976ZM-0.000741243 29.9989H8.04885V28.1998H-0.000741243V29.9989ZM7.15089 29.1522C7.25529 30.9269 8.01637 32.397 9.40535 33.5022L10.5255 32.0945C9.53792 31.3087 9.02129 30.3127 8.94681 29.0465L7.15089 29.1522ZM9.40535 33.5022C10.7654 34.5844 12.3789 35.1161 14.201 35.1161V33.3171C12.7523 33.3171 11.5419 32.9032 10.5255 32.0945L9.40535 33.5022ZM14.201 35.1161C15.6408 35.1161 16.9497 34.7971 18.1004 34.1333L17.2014 32.575C16.3588 33.0611 15.3678 33.3171 14.201 33.3171V35.1161ZM18.1035 34.1315C19.2565 33.4601 20.1585 32.5279 20.7987 31.3495L19.2178 30.4907C18.7336 31.3822 18.0641 32.0727 17.1982 32.5768L18.1035 34.1315ZM20.7968 31.3528C21.4538 30.1557 21.7702 28.8022 21.7702 27.3169H19.9712C19.9712 28.5405 19.7126 29.5891 19.2197 30.4873L20.7968 31.3528ZM21.7702 27.3169C21.7702 25.8061 21.4473 24.4364 20.7736 23.2354L19.2046 24.1155C19.7063 25.01 19.9712 26.068 19.9712 27.3169H21.7702ZM20.7776 23.2427C20.1244 22.0524 19.209 21.1137 18.0417 20.4425L17.145 22.002C18.022 22.5063 18.7038 23.2031 19.2005 24.1082L20.7776 23.2427ZM18.0417 20.4425C16.8707 19.7691 15.5469 19.4361 14.0948 19.422L14.0773 21.2209C15.2573 21.2324 16.2717 21.4999 17.145 22.002L18.0417 20.4425ZM14.086 19.422C12.8088 19.422 11.5689 19.6853 10.373 20.2058L11.0911 21.8554C12.0673 21.4304 13.0634 21.221 14.086 21.221V19.422ZM10.3695 20.2074C9.17475 20.7336 8.20381 21.4705 7.49633 22.4339L8.94635 23.4988C9.43993 22.8267 10.1428 22.2731 11.0946 21.8538L10.3695 20.2074ZM8.38002 22.0809L1.00123 20.7585L0.683867 22.5293L8.06266 23.8517L8.38002 22.0809ZM1.73845 21.7244L3.59753 1.02541L1.80572 0.864483L-0.0533543 21.5634L1.73845 21.7244ZM2.70162 1.84446H26.6971V0.0454388H2.70162V1.84446ZM25.7976 0.944948V7.7296H27.5966V0.944948H25.7976ZM26.6971 6.8301H9.54377V8.62911H26.6971V6.8301ZM8.64903 7.63717L7.63325 17.4692L9.42274 17.654L10.4385 7.82204L8.64903 7.63717ZM8.52799 18.4611H8.75798V16.6621H8.52799V18.4611ZM9.49124 18.0826C10.0673 17.2719 10.9675 16.5558 12.257 15.9643L11.5069 14.3291C10.0111 15.0153 8.8286 15.9092 8.02472 17.0406L9.49124 18.0826ZM12.257 15.9643C13.5181 15.3859 14.9466 15.088 16.5584 15.088V13.2889C14.7204 13.2889 13.0313 13.6299 11.5069 14.3291L12.257 15.9643ZM16.5584 15.088C18.775 15.088 20.7204 15.6072 22.4203 16.6272L23.3459 15.0845C21.3404 13.8813 19.0694 13.2889 16.5584 13.2889V15.088ZM22.4203 16.6272C24.1333 17.655 25.486 19.0642 26.4848 20.8715L28.0593 20.0014C26.9116 17.9245 25.3383 16.28 23.3459 15.0845L22.4203 16.6272ZM26.486 20.8737C27.4741 22.65 27.9754 24.7171 27.9633 27.1016L29.7623 27.1107C29.7757 24.461 29.2165 22.0816 28.0581 19.9992L26.486 20.8737ZM27.9633 27.1105C27.9754 29.6075 27.3981 31.7932 26.2524 33.6949L27.7934 34.6233C29.1264 32.4107 29.7758 29.8945 29.7623 27.1018L27.9633 27.1105ZM26.2516 33.6963C25.1133 35.5934 23.5187 37.0919 21.445 38.1947L22.2897 39.783C24.6368 38.5348 26.4792 36.8135 27.7942 34.6219L26.2516 33.6963ZM21.4467 38.1938C19.3992 39.277 16.9928 39.8334 14.201 39.8334V41.6324C17.2357 41.6324 19.9401 41.0261 22.288 39.7839L21.4467 38.1938Z" fill="black"/>
</svg>
