<svg width="31" height="41" viewBox="0 0 31 41" fill="none" xmlns="http://www.w3.org/2000/svg">
<path d="M15.9098 40.7329L15.9041 41.6324L15.9059 41.6324L15.9098 40.7329ZM10.0643 39.7171L9.76246 40.5645L9.76429 40.5652L10.0643 39.7171ZM5.04285 36.4781L4.40408 37.1115L5.04285 36.4781ZM1.51637 30.5368L0.666596 30.8318L0.667976 30.8357L1.51637 30.5368ZM0.232265 21.4522L-0.667244 21.4488V21.4522H0.232265ZM1.36304 12.6169L0.49894 12.3669L0.498141 12.3697L1.36304 12.6169ZM4.58288 5.98553L3.87176 5.43466L3.86935 5.43781L4.58288 5.98553ZM9.62346 1.84573L10.0151 2.65551L10.0194 2.65342L9.62346 1.84573ZM23.1353 1.94156L22.7269 2.74304L22.731 2.74508L23.1353 1.94156ZM27.965 6.06219L27.2276 6.5773L27.2302 6.58092L27.965 6.06219ZM30.1882 11.9077V12.8072H31.2005L31.0815 11.802L30.1882 11.9077ZM22.0045 11.9077L21.1286 12.1124L21.2909 12.8072H22.0045V11.9077ZM10.3709 10.8536L9.59881 10.3921L9.59686 10.3954L10.3709 10.8536ZM8.35852 19.919L7.45903 19.913L7.45297 20.8185H8.35852V19.919ZM8.62684 19.919V20.8185H9.18004L9.42961 20.3248L8.62684 19.919ZM11.0034 16.9483L11.574 17.6437L11.5749 17.6429L11.0034 16.9483ZM14.434 15.0509L14.7236 15.9025L14.7286 15.9008L14.434 15.0509ZM24.726 16.0283L24.26 16.7978L24.264 16.8002L24.726 16.0283ZM28.7317 34.1399L27.9599 33.6778L27.9578 33.6814L28.7317 34.1399ZM23.5761 39.008L23.9967 39.8031L23.9984 39.8022L23.5761 39.008ZM19.3021 33.2966L19.7692 34.0654L19.3021 33.2966ZM21.6787 30.8051L22.4672 31.2379H22.4672L21.6787 30.8051ZM21.6787 23.7713L20.8882 24.2007L20.8924 24.2081L21.6787 23.7713ZM19.3405 21.2989L19.8119 20.5328H19.8119L19.3405 21.2989ZM13.2649 20.9156L12.9044 20.0915L12.8996 20.0936L13.2649 20.9156ZM11.1375 22.4105L10.4886 21.7876L10.4821 21.7944L11.1375 22.4105ZM9.71928 24.6337L10.55 24.9788L10.5518 24.9743L9.71928 24.6337ZM10.0643 30.7668L9.27566 31.1995L9.27977 31.2069L10.0643 30.7668ZM12.4408 33.2775L11.9623 34.0392L11.9667 34.0419L12.4408 33.2775ZM15.9155 39.8334C13.9956 39.8213 12.1467 39.4996 10.3642 38.8691L9.76429 40.5652C11.7383 41.2635 13.7864 41.619 15.9041 41.6324L15.9155 39.8334ZM10.3661 38.8698C8.63548 38.2534 7.07502 37.2502 5.68163 35.8448L4.40408 37.1115C5.97499 38.6959 7.76213 39.8521 9.76246 40.5645L10.3661 38.8698ZM5.68163 35.8448C4.31311 34.4645 3.19979 32.6079 2.36476 30.2379L0.667976 30.8357C1.57063 33.3976 2.8083 35.5019 4.40408 37.1115L5.68163 35.8448ZM2.36613 30.2418C1.55278 27.8989 1.13178 24.9772 1.13178 21.4522H-0.667244C-0.667244 25.1081 -0.232183 28.2427 0.666605 30.8318L2.36613 30.2418ZM1.13177 21.4557C1.14429 18.2241 1.51387 15.3632 2.22794 12.864L0.498141 12.3697C-0.269932 15.058 -0.654209 18.0874 -0.667238 21.4488L1.13177 21.4557ZM2.22714 12.8668C2.9555 10.3484 3.98347 8.24367 5.29641 6.53324L3.86935 5.43781C2.39687 7.35608 1.27828 9.67228 0.498945 12.3669L2.22714 12.8668ZM5.29399 6.53638C6.61937 4.82543 8.19236 3.5371 10.0151 2.6555L9.2318 1.03596C7.14475 2.04539 5.35736 3.51691 3.87177 5.43467L5.29399 6.53638ZM10.0194 2.65342C11.8375 1.7622 13.8909 1.30782 16.1973 1.30782V-0.491201C13.6483 -0.491201 11.3192 0.0126991 9.22753 1.03805L10.0194 2.65342ZM16.1973 1.30782C18.6978 1.30782 20.8665 1.79507 22.7269 2.74302L23.5437 1.14011C21.392 0.0437126 18.9354 -0.491201 16.1973 -0.491201V1.30782ZM22.731 2.74508C24.6119 3.69155 26.1043 4.96916 27.2276 6.5773L28.7024 5.54708C27.3981 3.67984 25.6707 2.21036 23.5396 1.13805L22.731 2.74508ZM27.2302 6.58092C28.3684 8.19346 29.0566 9.99936 29.295 12.0134L31.0815 11.802C30.8088 9.49742 30.0148 7.4063 28.6999 5.54346L27.2302 6.58092ZM30.1882 11.0082H22.0045V12.8072H30.1882V11.0082ZM22.8804 11.7031C22.5181 10.1526 21.7415 8.89064 20.5375 7.9726L19.4467 9.40318C20.287 10.044 20.852 10.9286 21.1286 12.1124L22.8804 11.7031ZM20.5375 7.9726C19.3326 7.05389 17.8667 6.61927 16.1973 6.61927V8.41829C17.5433 8.41829 18.6072 8.76308 19.4467 9.40318L20.5375 7.9726ZM16.1973 6.61927C13.3201 6.61927 11.0873 7.90176 9.59881 10.3921L11.143 11.3151C12.3122 9.35902 13.9636 8.41829 16.1973 8.41829V6.61927ZM9.59686 10.3954C8.16993 12.8059 7.48517 16.0044 7.45903 19.913L9.25801 19.925C9.28297 16.1928 9.93981 13.3477 11.145 11.3118L9.59686 10.3954ZM8.35852 20.8185H8.62684V19.0195H8.35852V20.8185ZM9.42961 20.3248C9.96155 19.2725 10.6751 18.3812 11.574 17.6437L10.4328 16.2529C9.33845 17.1508 8.46762 18.2401 7.82407 19.5132L9.42961 20.3248ZM11.5749 17.6429C12.4978 16.8835 13.5452 16.3032 14.7236 15.9025L14.1445 14.1993C12.7675 14.6674 11.5277 15.352 10.4319 16.2537L11.5749 17.6429ZM14.7286 15.9008C15.9199 15.488 17.1807 15.2796 18.5163 15.2796V13.4806C16.9899 13.4806 15.5292 13.7194 14.1395 14.201L14.7286 15.9008ZM18.5163 15.2796C20.6938 15.2796 22.5996 15.7921 24.26 16.7978L25.192 15.2589C23.2238 14.0669 20.9897 13.4806 18.5163 13.4806V15.2796ZM24.264 16.8002C25.9378 17.802 27.258 19.1786 28.2311 20.9468L29.8072 20.0794C28.6849 18.0401 27.143 16.4268 25.188 15.2565L24.264 16.8002ZM28.2311 20.9468C29.1967 22.7014 29.6912 24.7272 29.6912 27.0486H31.4902C31.4902 24.4636 30.937 22.1325 29.8072 20.0794L28.2311 20.9468ZM29.6912 27.0486C29.6912 29.5605 29.1073 31.7615 27.9599 33.6778L29.5034 34.602C30.8347 32.3786 31.4902 29.852 31.4902 27.0486H29.6912ZM27.9578 33.6814C26.8189 35.6033 25.2246 37.1125 23.1537 38.2138L23.9984 39.8022C26.3484 38.5525 28.1912 36.8163 29.5055 34.5985L27.9578 33.6814ZM23.1554 38.2129C21.1093 39.2954 18.7044 39.8457 15.9137 39.8334L15.9059 41.6324C18.9416 41.6457 21.6475 41.046 23.9967 39.8031L23.1554 38.2129ZM15.8715 35.1161C17.2999 35.1161 18.6076 34.7712 19.7692 34.0654L18.8351 32.5279C17.9779 33.0487 16.9984 33.3171 15.8715 33.3171V35.1161ZM19.7692 34.0654C20.915 33.3692 21.8174 32.4221 22.4672 31.2379L20.8901 30.3723C20.3901 31.2836 19.708 31.9975 18.8351 32.5279L19.7692 34.0654ZM22.4672 31.2379C23.1215 30.0457 23.4406 28.7191 23.4406 27.2786H21.6416C21.6416 28.4446 21.3858 29.469 20.8901 30.3723L22.4672 31.2379ZM23.4406 27.2786C23.4406 25.8382 23.1215 24.5162 22.465 23.3344L20.8924 24.2081C21.3858 25.0963 21.6416 26.1124 21.6416 27.2786H23.4406ZM22.4691 23.3419C21.8323 22.1697 20.9434 21.2291 19.8119 20.5328L18.869 22.065C19.7308 22.5953 20.4006 23.303 20.8883 24.2007L22.4691 23.3419ZM19.8119 20.5328C18.6606 19.8244 17.3573 19.4795 15.929 19.4795V21.2785C17.0561 21.2785 18.0271 21.5469 18.869 22.065L19.8119 20.5328ZM15.929 19.4795C14.8559 19.4795 13.844 19.6804 12.9044 20.0915L13.6255 21.7397C14.3213 21.4353 15.0855 21.2785 15.929 21.2785V19.4795ZM12.8996 20.0936C11.9875 20.499 11.1822 21.0651 10.4887 21.7876L11.7864 23.0335C12.3195 22.4782 12.9324 22.0477 13.6303 21.7376L12.8996 20.0936ZM10.4821 21.7944C9.80326 22.5166 9.27176 23.352 8.88675 24.2932L10.5518 24.9743C10.8568 24.2289 11.2708 23.5821 11.793 23.0266L10.4821 21.7944ZM8.88859 24.2887C8.49586 25.2341 8.3023 26.24 8.3023 27.2978H10.1013C10.1013 26.4645 10.2527 25.6944 10.55 24.9788L8.88859 24.2887ZM8.3023 27.2978C8.3023 28.7049 8.62367 30.0114 9.2757 31.1995L10.8528 30.334C10.3549 29.4267 10.1013 28.4206 10.1013 27.2978H8.3023ZM9.27977 31.2069C9.93946 32.3828 10.8357 33.3314 11.9623 34.0392L12.9193 32.5158C12.0527 31.9714 11.3646 31.2462 10.8488 30.3267L9.27977 31.2069ZM11.9667 34.0419C13.1293 34.763 14.4394 35.1161 15.8715 35.1161V33.3171C14.7481 33.3171 13.7711 33.0441 12.9149 32.5131L11.9667 34.0419Z" fill="black"/>
</svg>
