<svg width="201" height="71" viewBox="0 0 201 71" fill="none" xmlns="http://www.w3.org/2000/svg">
<path d="M0.5 6.8L0.163036 5.85848L-0.718071 6.17382L-0.461764 7.07388L0.5 6.8ZM19.5 -4.76837e-06V-1H19.3264L19.163 -0.941522L19.5 -4.76837e-06ZM34.9 -4.76837e-06H35.9V-1H34.9V-4.76837e-06ZM34.9 70V71H35.9V70H34.9ZM17 70H16V71H17V70ZM17 18.8H18V17.5141L16.7537 17.8308L17 18.8ZM4.8 21.9L3.83824 22.1739L4.10439 23.1085L5.04627 22.8692L4.8 21.9ZM0.836964 7.74151L19.837 0.941513L19.163 -0.941522L0.163036 5.85848L0.836964 7.74151ZM19.5 0.999995H34.9V-1H19.5V0.999995ZM33.9 -4.76837e-06V70H35.9V-4.76837e-06H33.9ZM34.9 69H17V71H34.9V69ZM18 70V18.8H16V70H18ZM16.7537 17.8308L4.55373 20.9308L5.04627 22.8692L17.2463 19.7692L16.7537 17.8308ZM5.76176 21.6261L1.46176 6.52612L-0.461764 7.07388L3.83824 22.1739L5.76176 21.6261ZM46.5062 17.3H45.5062V18.3H46.5062V17.3ZM46.5062 -4.76837e-06V-1H45.5062V-4.76837e-06H46.5062ZM93.9062 -4.76837e-06H94.9062V-1H93.9062V-4.76837e-06ZM93.9062 14.8L94.8358 15.1688L94.9062 14.9911V14.8H93.9062ZM72.0062 70V71H72.6853L72.9358 70.3688L72.0062 70ZM52.7062 70L51.7761 69.6329L51.2365 71H52.7062V70ZM73.5063 17.3L74.4364 17.6671L74.976 16.3H73.5063V17.3ZM47.5062 17.3V-4.76837e-06H45.5062V17.3H47.5062ZM46.5062 0.999995H93.9062V-1H46.5062V0.999995ZM92.9062 -4.76837e-06V14.8H94.9062V-4.76837e-06H92.9062ZM92.9767 14.4312L71.0767 69.6312L72.9358 70.3688L94.8358 15.1688L92.9767 14.4312ZM72.0062 69H52.7062V71H72.0062V69ZM53.6364 70.3671L74.4364 17.6671L72.5761 16.9329L51.7761 69.6329L53.6364 70.3671ZM73.5063 16.3H46.5062V18.3H73.5063V16.3Z" fill="#379AC2"/>
<path d="M120.1 45V44H119.1V45H120.1ZM141.7 45H142.7V44H141.7V45ZM141.7 70V71H142.7V70H141.7ZM133.4 70H132.4V71H133.4V70ZM133.4 52.95H134.4V51.95H133.4V52.95ZM128.4 52.95V51.95H127.4V52.95H128.4ZM125.45 68.1L124.796 67.3434L124.79 67.349L125.45 68.1ZM116.5 70H115.5V70.8983L116.393 70.9943L116.5 70ZM116.5 62.3L116.768 61.3365L115.5 60.9844V62.3H116.5ZM119.2 61.85L119.926 62.5377L119.935 62.5285L119.943 62.519L119.2 61.85ZM120.1 46H141.7V44H120.1V46ZM140.7 45V70H142.7V45H140.7ZM141.7 69H133.4V71H141.7V69ZM134.4 70V52.95H132.4V70H134.4ZM133.4 51.95H128.4V53.95H133.4V51.95ZM127.4 52.95V59.65H129.4V52.95H127.4ZM127.4 59.65C127.4 63.4431 126.45 65.9135 124.796 67.3435L126.104 68.8565C128.383 66.8865 129.4 63.7236 129.4 59.65H127.4ZM124.79 67.349C123.162 68.7805 120.519 69.426 116.607 69.0057L116.393 70.9943C120.548 71.4406 123.872 70.8195 126.11 68.851L124.79 67.349ZM117.5 70V62.3H115.5V70H117.5ZM116.232 63.2635C117.617 63.6482 118.968 63.5484 119.926 62.5377L118.474 61.1623C118.232 61.4182 117.783 61.6185 116.768 61.3365L116.232 63.2635ZM119.943 62.519C120.797 61.5706 121.1 60.1221 121.1 58.45H119.1C119.1 59.9779 118.803 60.796 118.457 61.181L119.943 62.519ZM121.1 58.45V45H119.1V58.45H121.1ZM173.577 60.55V61.55H174.351L174.545 60.801L173.577 60.55ZM156.327 60.55V59.55H154.837L155.402 60.9292L156.327 60.55ZM166.477 61.85L167.051 61.0308L166.392 60.5694L165.8 61.1145L166.477 61.85ZM172.477 66.05L173.264 66.6674L173.916 65.8365L173.051 65.2308L172.477 66.05ZM151.527 67L150.825 67.7118L150.834 67.721L151.527 67ZM151.477 48.1L150.766 47.3976V47.3976L151.477 48.1ZM170.277 48.05L169.561 48.7475L169.565 48.7523L170.277 48.05ZM156.227 54.8L155.27 54.5127L154.883 55.8H156.227V54.8ZM165.827 54.8V55.8H167.135L166.792 54.538L165.827 54.8ZM173.577 59.55H156.327V61.55H173.577V59.55ZM155.402 60.9292C155.903 62.1509 156.731 63.0934 157.874 63.7157C158.998 64.3278 160.368 64.6 161.927 64.6V62.6C160.586 62.6 159.573 62.3639 158.831 61.9593C158.107 61.5649 157.585 60.9825 157.253 60.1708L155.402 60.9292ZM161.927 64.6C163.938 64.6 165.698 63.9271 167.155 62.5855L165.8 61.1145C164.723 62.1063 163.45 62.6 161.927 62.6V64.6ZM165.904 62.6692L171.904 66.8692L173.051 65.2308L167.051 61.0308L165.904 62.6692ZM171.691 65.4326C169.486 68.2416 166.222 69.7 161.727 69.7V71.7C166.699 71.7 170.602 70.0584 173.264 66.6674L171.691 65.4326ZM161.727 69.7C157.7 69.7 154.566 68.5335 152.22 66.279L150.834 67.721C153.622 70.3998 157.288 71.7 161.727 71.7V69.7ZM152.23 66.2882C149.901 63.9898 148.727 61.1026 148.727 57.55H146.727C146.727 61.5974 148.087 65.0102 150.825 67.7118L152.23 66.2882ZM148.727 57.55C148.727 54.0293 149.885 51.1368 152.189 48.8024L150.766 47.3976C148.069 50.1298 146.727 53.5374 146.727 57.55H148.727ZM152.189 48.8024C154.484 46.4769 157.403 45.3 161.027 45.3V43.3C156.919 43.3 153.471 44.6564 150.766 47.3976L152.189 48.8024ZM161.027 45.3C164.512 45.3 167.33 46.4555 169.561 48.7475L170.994 47.3525C168.358 44.6445 165.01 43.3 161.027 43.3V45.3ZM169.565 48.7523C171.795 51.0129 172.927 53.885 172.927 57.45H174.927C174.927 53.415 173.626 50.0205 170.989 47.3477L169.565 48.7523ZM172.927 57.45C172.927 58.5525 172.817 59.4987 172.609 60.299L174.545 60.801C174.805 59.8013 174.927 58.6809 174.927 57.45H172.927ZM156.227 55.8H165.827V53.8H156.227V55.8ZM166.792 54.538C166.431 53.2079 165.777 52.1193 164.775 51.373C163.776 50.6291 162.532 50.3 161.127 50.3V52.3C162.223 52.3 163.012 52.5543 163.58 52.977C164.144 53.3973 164.59 54.0588 164.862 55.0619L166.792 54.538ZM161.127 50.3C159.694 50.3 158.424 50.6269 157.396 51.3613C156.363 52.0992 155.669 53.1803 155.27 54.5127L157.185 55.0873C157.485 54.0864 157.958 53.4175 158.559 52.9887C159.164 52.5565 159.994 52.3 161.127 52.3V50.3ZM177.211 45V44H176.211V45H177.211ZM199.911 45H200.911V44H199.911V45ZM199.911 52.95V53.95H200.911V52.95H199.911ZM192.761 52.95V51.95H191.761V52.95H192.761ZM192.761 70V71H193.761V70H192.761ZM184.461 70H183.461V71H184.461V70ZM184.461 52.95H185.461V51.95H184.461V52.95ZM177.211 52.95H176.211V53.95H177.211V52.95ZM177.211 46H199.911V44H177.211V46ZM198.911 45V52.95H200.911V45H198.911ZM199.911 51.95H192.761V53.95H199.911V51.95ZM191.761 52.95V70H193.761V52.95H191.761ZM192.761 69H184.461V71H192.761V69ZM185.461 70V52.95H183.461V70H185.461ZM184.461 51.95H177.211V53.95H184.461V51.95ZM178.211 52.95V45H176.211V52.95H178.211Z" fill="#379AC2"/>
</svg>
