<svg width="260" height="38" viewBox="0 0 260 38" fill="none" xmlns="http://www.w3.org/2000/svg">
<rect width="59.4286" height="37.1429" rx="10" fill="white"/>
<g clip-path="url(#clip0_57_195)">
<path d="M53.1739 18.6541C53.1761 26.7324 46.8909 33.2824 39.1357 33.2846C31.3804 33.2866 25.0925 26.7398 25.0905 18.6615C25.0905 18.6589 25.0905 18.6567 25.0905 18.6541C25.0884 10.5759 31.3736 4.02558 39.1284 4.02344C46.8838 4.02129 53.1718 10.5683 53.1739 18.6467C53.1739 18.6491 53.1739 18.6515 53.1739 18.6541Z" fill="#707070"/>
<path d="M20.2059 4.02742C12.4967 4.07843 6.25464 10.6118 6.25464 18.6543C6.25464 26.7281 12.5454 33.281 20.2964 33.281C23.9342 33.281 27.2502 31.8369 29.7454 29.4699C29.7454 29.4699 29.7449 29.4696 29.7443 29.4693H29.7473C30.2582 28.9843 30.7348 28.461 31.1728 27.903H28.296C27.9118 27.4197 27.5627 26.916 27.2491 26.3963H32.2107C32.5124 25.8933 32.7856 25.371 33.0281 24.8301H26.4299C26.205 24.3279 26.0098 23.8143 25.8431 23.2933H33.6156C34.084 21.8354 34.3382 20.2755 34.3382 18.6541C34.3382 17.5791 34.2263 16.531 34.0146 15.5219H25.4309C25.5372 15.0026 25.6715 14.4895 25.8315 13.9853H33.6068C33.433 13.4488 33.2311 12.926 33.0015 12.4192H26.4291C26.6662 11.8916 26.9348 11.3784 27.2348 10.8828H32.1928C31.8628 10.3353 31.4977 9.81213 31.1029 9.31656H28.3386C28.766 8.7926 29.2365 8.29918 29.7473 7.8391C27.2519 5.47186 23.935 4.02742 20.2964 4.02742C20.2662 4.02742 20.2362 4.02725 20.2059 4.02742Z" fill="#707070"/>
<path d="M51.7651 26.3008C51.8415 26.3008 51.9159 26.3214 51.9884 26.362C52.0613 26.4026 52.1174 26.4612 52.158 26.5373C52.1986 26.6126 52.2189 26.692 52.2189 26.7742C52.2189 26.8554 52.1987 26.934 52.1588 27.0093C52.119 27.0844 52.0629 27.143 51.9907 27.1848C51.9192 27.2259 51.8436 27.2467 51.765 27.2467C51.6864 27.2467 51.6109 27.2259 51.539 27.1848C51.4669 27.1429 51.4111 27.0846 51.3705 27.0093C51.3306 26.934 51.3108 26.8554 51.3108 26.7742C51.3108 26.692 51.3309 26.6126 51.3716 26.5373C51.4125 26.4612 51.4689 26.4031 51.5414 26.362C51.6146 26.3214 51.6889 26.3008 51.7651 26.3008ZM51.7651 26.3792C51.7016 26.3792 51.6395 26.3964 51.5788 26.4305C51.5186 26.4647 51.4715 26.5131 51.4376 26.5771C51.4032 26.6402 51.3861 26.7056 51.3861 26.7742C51.3861 26.8422 51.4029 26.9079 51.436 26.9703C51.4699 27.0326 51.5168 27.0814 51.5767 27.1164C51.6371 27.1513 51.6997 27.1684 51.765 27.1684C51.8306 27.1684 51.8933 27.1513 51.9534 27.1164C52.0133 27.0814 52.0601 27.0326 52.0935 26.9703C52.1266 26.9079 52.1431 26.8424 52.1431 26.7742C52.1431 26.7056 52.1263 26.64 52.0922 26.5771C52.0585 26.5131 52.0113 26.4647 51.9506 26.4305C51.8905 26.3962 51.8287 26.3792 51.7651 26.3792ZM51.5661 27.0354V26.5266H51.7344C51.7914 26.5266 51.833 26.5312 51.8586 26.5411C51.8843 26.5505 51.9048 26.5666 51.9201 26.5902C51.9352 26.6134 51.943 26.6382 51.943 26.6646C51.943 26.7019 51.9303 26.7343 51.9046 26.7617C51.8796 26.7891 51.8455 26.8048 51.8033 26.8081C51.8206 26.8155 51.8344 26.8249 51.8452 26.8351C51.865 26.855 51.8888 26.8885 51.9173 26.9358L51.9767 27.0354H51.8807L51.8376 26.9553C51.8035 26.8923 51.7761 26.853 51.755 26.8368C51.7406 26.8254 51.7195 26.8195 51.6921 26.8195H51.6457V27.0359H51.5664M51.645 26.749H51.7407C51.7864 26.749 51.8173 26.7417 51.8339 26.7277C51.8507 26.7131 51.8591 26.6947 51.8591 26.6712C51.8591 26.656 51.8553 26.6425 51.8472 26.6309C51.839 26.6189 51.8279 26.6103 51.8135 26.6042C51.7994 26.5984 51.7731 26.5951 51.7347 26.5951H51.6453V26.749" fill="#707070"/>
<path d="M24.956 22.8513L25.143 21.5274C25.0408 21.5274 24.8905 21.5735 24.7577 21.5735C24.2373 21.5735 24.1723 21.2838 24.2132 21.0721L24.726 18.4094H25.5171L25.6802 16.9067H24.9346L25.0864 15.9961H23.5267C23.4937 16.0304 22.6443 21.1172 22.6443 21.7369C22.6443 22.6539 23.1384 23.062 23.8354 23.0555C24.3809 23.0508 24.8061 22.8934 24.956 22.8513Z" fill="#707070"/>
<path d="M25.4294 20.3267C25.4294 22.5275 26.8239 23.0503 28.0121 23.0503C29.1089 23.0503 29.6841 22.7856 29.6841 22.7856L29.9474 21.2833C29.9474 21.2833 29.0207 21.6759 28.2674 21.6759C26.6619 21.6759 26.9434 20.4289 26.9434 20.4289L30.0278 20.4386C30.0278 20.4386 30.2241 19.4298 30.2241 19.0186C30.2241 17.9923 29.6874 16.7324 28.0459 16.7324C26.5426 16.7328 25.4294 18.42 25.4294 20.3267ZM28.0516 18.127C28.8953 18.127 28.7397 19.1148 28.7397 19.1949H27.0798C27.0798 19.0926 27.2365 18.127 28.0516 18.127Z" fill="#707070"/>
<path d="M37.5187 22.8504L37.7863 21.1527C37.7863 21.1527 37.0523 21.5359 36.5491 21.5359C35.4884 21.5359 35.0629 20.6923 35.0629 19.7859C35.0629 17.9474 35.9754 16.9358 36.9913 16.9358C37.7532 16.9358 38.3644 17.3813 38.3644 17.3813L38.6085 15.7317C38.6085 15.7317 37.8868 15.1887 37.11 15.1856C34.7732 15.176 33.4362 16.8707 33.4362 19.8004C33.4362 21.7422 34.4263 23.0637 36.2104 23.0637C36.7149 23.0637 37.5187 22.8504 37.5187 22.8504Z" fill="#707070"/>
<path d="M16.7329 16.7568C15.7077 16.7568 14.922 17.1 14.922 17.1L14.7049 18.4416C14.7049 18.4416 15.3535 18.1671 16.3341 18.1671C16.8909 18.1671 17.2982 18.2323 17.2982 18.7036C17.2982 18.9899 17.2484 19.0955 17.2484 19.0955C17.2484 19.0955 16.8091 19.0574 16.6056 19.0574C15.1461 19.0574 13.9545 19.6322 13.9545 21.3652C13.9545 22.7309 14.8456 23.044 15.3979 23.044C16.4528 23.044 16.8704 22.3502 16.8945 22.3482L16.8823 22.924H18.1988L18.7861 18.6353C18.7861 16.8153 17.2622 16.7568 16.7329 16.7568ZM16.9608 20.2394C16.9894 20.5012 16.8958 21.7393 15.9953 21.7393C15.531 21.7393 15.4104 21.3695 15.4104 21.1512C15.4104 20.7247 15.6327 20.2131 16.7281 20.2131C16.9833 20.2131 16.9178 20.2323 16.9608 20.2394Z" fill="#707070"/>
<path d="M20.1852 23.0125C20.522 23.0125 22.447 23.1019 22.447 21.0326C22.447 19.0977 20.6651 19.4802 20.6651 18.7027C20.6651 18.316 20.9556 18.1942 21.4866 18.1942C21.6973 18.1942 22.5083 18.264 22.5083 18.264L22.6968 16.8889C22.6968 16.8889 22.1719 16.7666 21.3174 16.7666C20.2114 16.7666 19.0887 17.2265 19.0887 18.8C19.0887 20.5832 20.9607 20.4041 20.9607 21.1552C20.9607 21.6566 20.4377 21.6979 20.0345 21.6979C19.3371 21.6979 18.7092 21.4484 18.707 21.4605L18.5074 22.8215C18.5437 22.8331 18.9312 23.0125 20.1852 23.0125Z" fill="#707070"/>
<path d="M49.8508 15.5098L49.5806 17.6078C49.5806 17.6078 49.0175 16.798 48.1366 16.798C46.4791 16.798 45.6249 18.5187 45.6249 20.4952C45.6249 21.7712 46.2341 23.022 47.4789 23.022C48.3744 23.022 48.8709 22.3715 48.8709 22.3715L48.8052 22.9269H50.2597L51.4018 15.5212L49.8508 15.5098ZM49.2087 19.5874C49.2087 20.41 48.8175 21.5089 48.0073 21.5089C47.4691 21.5089 47.2168 21.0383 47.2168 20.2999C47.2168 19.0923 47.7374 18.2958 48.3946 18.2958C48.9324 18.2958 49.2087 18.6804 49.2087 19.5874Z" fill="#707070"/>
<path d="M8.63776 22.9331L9.54789 17.3418L9.68164 22.9331H10.7116L12.6331 17.3418L11.7819 22.9331H13.3125L14.4911 15.5174L12.0597 15.498L10.6135 20.0384L10.5739 15.5174H8.34569L7.15015 22.9331H8.63776Z" fill="#707070"/>
<path d="M31.6726 22.9439C32.1077 20.3662 32.2627 18.3305 33.5318 18.7521C33.714 17.7543 34.1484 16.8867 34.3468 16.4644C34.3468 16.4644 34.2841 16.3672 33.8919 16.3672C33.2223 16.3672 32.3283 17.7826 32.3283 17.7826L32.4619 16.9075H31.0696L30.1371 22.9438L31.6726 22.9439Z" fill="#707070"/>
<path d="M40.6501 16.7568C39.6245 16.7568 38.8388 17.1 38.8388 17.1L38.6218 18.4416C38.6218 18.4416 39.2708 18.1671 40.2509 18.1671C40.8078 18.1671 41.215 18.2323 41.215 18.7036C41.215 18.9899 41.1654 19.0955 41.1654 19.0955C41.1654 19.0955 40.7262 19.0574 40.5227 19.0574C39.063 19.0574 37.8716 19.6322 37.8716 21.3652C37.8716 22.7309 38.7625 23.044 39.3148 23.044C40.3695 23.044 40.7874 22.3502 40.8113 22.3482L40.799 22.924H42.1157L42.7029 18.6353C42.703 16.8153 41.1791 16.7568 40.6501 16.7568ZM40.8777 20.2394C40.9062 20.5012 40.8126 21.7393 39.9123 21.7393C39.4476 21.7393 39.3272 21.3695 39.3272 21.1512C39.3272 20.7247 39.5494 20.2131 40.6449 20.2131C40.9002 20.2131 40.8349 20.2323 40.8777 20.2394Z" fill="#707070"/>
<path d="M44.2184 22.9438C44.4574 21.0474 44.8997 18.385 46.0775 18.752C46.2596 17.7542 46.084 17.7569 45.6919 17.7569C45.0219 17.7569 44.8735 17.7823 44.8735 17.7823L45.0073 16.9072H43.6151L42.6826 22.9437L44.2184 22.9438Z" fill="#707070"/>
<path d="M25.3458 22.3779L25.533 21.0541C25.4308 21.0541 25.2804 21.0997 25.1477 21.0997C24.6273 21.0997 24.5699 20.8114 24.603 20.5983L25.0235 17.8973H25.8144L26.0054 16.433H25.2596L25.4114 15.5225H23.9164C23.8834 15.5568 23.0338 20.6437 23.0338 21.2631C23.0338 22.1801 23.5281 22.5885 24.2251 22.5819C24.7709 22.5771 25.1959 22.4198 25.3458 22.3779Z" fill="white"/>
<path d="M25.8195 19.8542C25.8195 22.055 27.214 22.578 28.4021 22.578C29.4988 22.578 29.9814 22.3226 29.9814 22.3226L30.2447 20.8206C30.2447 20.8206 29.4105 21.2034 28.6571 21.2034C27.0518 21.2034 27.3329 19.9566 27.3329 19.9566H30.3712C30.3712 19.9566 30.5674 18.9474 30.5674 18.5362C30.5674 17.5101 30.0771 16.2598 28.4356 16.2598C26.9323 16.2601 25.8195 17.9474 25.8195 19.8542ZM28.4413 17.6545C29.285 17.6545 29.1294 18.6422 29.1294 18.7221H27.4695C27.4695 18.6201 27.6264 17.6545 28.4413 17.6545Z" fill="white"/>
<path d="M37.9087 22.3777L38.1762 20.6798C38.1762 20.6798 37.4426 21.063 36.9391 21.063C35.8786 21.063 35.4533 20.2194 35.4533 19.3131C35.4533 17.4746 36.3658 16.4632 37.3816 16.4632C38.1434 16.4632 38.7548 16.9088 38.7548 16.9088L38.9989 15.2591C38.9989 15.2591 38.0922 14.877 37.3151 14.877C35.5891 14.877 33.91 16.4366 33.91 19.3658C33.91 21.3081 34.8167 22.5909 36.6008 22.5909C37.1052 22.5911 37.9087 22.3777 37.9087 22.3777Z" fill="white"/>
<path d="M17.1229 16.2842C16.0977 16.2842 15.3119 16.6274 15.3119 16.6274L15.0949 17.969C15.0949 17.969 15.7435 17.6945 16.724 17.6945C17.2808 17.6945 17.688 17.7597 17.688 18.231C17.688 18.5172 17.6381 18.6229 17.6381 18.6229C17.6381 18.6229 17.199 18.5846 16.9957 18.5846C15.7027 18.5846 14.3444 19.1594 14.3444 20.8924C14.3444 22.2579 15.2355 22.5712 15.7878 22.5712C16.8426 22.5712 17.2972 21.8583 17.3215 21.8561L17.2722 22.4512H18.5887L19.176 18.1623C19.176 16.3428 17.6522 16.2842 17.1229 16.2842ZM17.4432 19.7763C17.4717 20.0382 17.2855 21.2663 16.3854 21.2663C15.921 21.2663 15.8003 20.8968 15.8003 20.6783C15.8003 20.252 16.0226 19.7403 17.1182 19.7403C17.373 19.7406 17.4003 19.769 17.4432 19.7763Z" fill="white"/>
<path d="M20.5752 22.5401C20.912 22.5401 22.8371 22.6292 22.8371 20.5599C22.8371 18.6254 21.0551 19.0075 21.0551 18.2303C21.0551 17.8434 21.3456 17.7216 21.8765 17.7216C22.0872 17.7216 22.8982 17.7914 22.8982 17.7914L23.0867 16.4163C23.0867 16.4163 22.5619 16.2939 21.7074 16.2939C20.6014 16.2939 19.4787 16.7539 19.4787 18.3274C19.4787 20.1104 21.3506 19.9315 21.3506 20.6826C21.3506 21.1839 20.8277 21.2247 20.4247 21.2247C19.7272 21.2247 19.0992 20.9754 19.0969 20.9873L18.8976 22.3486C18.9337 22.3601 19.321 22.5401 20.5752 22.5401Z" fill="white"/>
<path d="M50.2928 15.0503L49.9703 17.1348C49.9703 17.1348 49.4076 16.3251 48.5266 16.3251C47.1567 16.3251 46.0149 18.0455 46.0149 20.0224C46.0149 21.2984 46.6239 22.5487 47.8689 22.5487C48.7645 22.5487 49.261 21.8983 49.261 21.8983L49.1952 22.4538H50.6494L51.7915 15.0479L50.2928 15.0503ZM49.5985 19.1146C49.5985 19.9372 49.2076 21.0359 48.3969 21.0359C47.8589 21.0359 47.6068 20.5655 47.6068 19.8271C47.6068 18.6197 48.1274 17.823 48.7843 17.823C49.3225 17.8228 49.5985 18.208 49.5985 19.1146Z" fill="white"/>
<path d="M9.0278 22.4608L9.93793 16.8695L10.0715 22.4608H11.1016L13.0231 16.8695L12.172 22.4608H13.7025L14.8813 15.0449H12.5144L11.0405 19.595L10.9637 15.0449H8.78201L7.5863 22.4608H9.0278Z" fill="white"/>
<path d="M32.0627 22.4707C32.4978 19.8928 32.5785 17.7996 33.617 18.1827C33.7988 17.185 33.9742 16.799 34.1726 16.3768C34.1726 16.3768 34.0796 16.3564 33.8843 16.3564C33.2148 16.3564 32.7188 17.3093 32.7188 17.3093L32.852 16.4342H31.46L30.5273 22.4707H32.0627Z" fill="white"/>
<path d="M41.3584 16.2842C40.3332 16.2842 39.5473 16.6274 39.5473 16.6274L39.3305 17.969C39.3305 17.969 39.9791 17.6945 40.9596 17.6945C41.5164 17.6945 41.9233 17.7597 41.9233 18.231C41.9233 18.5172 41.8737 18.6229 41.8737 18.6229C41.8737 18.6229 41.4346 18.5846 41.2311 18.5846C39.9383 18.5846 38.58 19.1594 38.58 20.8924C38.58 22.2579 39.4709 22.5712 40.0232 22.5712C41.078 22.5712 41.5327 21.8583 41.5568 21.8561L41.5078 22.4512C41.5078 22.4512 42.8238 22.4512 42.8243 22.4512L43.4114 18.1623C43.4116 16.3428 41.8877 16.2842 41.3584 16.2842ZM41.6791 19.7763C41.7076 20.0382 41.5213 21.2663 40.6208 21.2663C40.1565 21.2663 40.036 20.8968 40.036 20.6783C40.036 20.252 40.2584 19.7403 41.3538 19.7403C41.6086 19.7406 41.6357 19.769 41.6791 19.7763Z" fill="white"/>
<path d="M44.6147 22.4707C45.0501 19.8928 45.1307 17.7996 46.1689 18.1827C46.351 17.185 46.5266 16.799 46.7249 16.3768C46.7249 16.3768 46.6318 16.3564 46.4366 16.3564C45.767 16.3564 45.271 17.3093 45.271 17.3093L45.4043 16.4342H44.0122L43.0796 22.4707H44.6147Z" fill="white"/>
<path d="M51.7592 21.5391C51.8351 21.5391 51.9099 21.5594 51.9821 21.6006C52.0548 21.6406 52.1114 21.6994 52.1519 21.7755C52.1927 21.8511 52.2126 21.9298 52.2126 22.0122C52.2126 22.0936 52.1927 22.1721 52.1526 22.2473C52.1128 22.3224 52.0569 22.3813 51.9847 22.4227C51.9128 22.464 51.8374 22.4848 51.7591 22.4848C51.6802 22.4848 51.6047 22.464 51.5326 22.4227C51.4607 22.381 51.4049 22.3224 51.3649 22.2473C51.3244 22.1721 51.3046 22.0936 51.3046 22.0122C51.3046 21.9298 51.3247 21.8511 51.3654 21.7755C51.4063 21.6994 51.463 21.6409 51.5355 21.6006C51.6085 21.5594 51.6833 21.5391 51.7592 21.5391ZM51.7592 21.617C51.6957 21.617 51.6336 21.6341 51.5729 21.6687C51.5123 21.7023 51.4653 21.751 51.4312 21.8147C51.3973 21.8776 51.3802 21.9435 51.3802 22.0118C51.3802 22.0802 51.3966 22.1456 51.4298 22.208C51.4635 22.2702 51.5104 22.3191 51.571 22.3542C51.6309 22.3886 51.6935 22.4059 51.7592 22.4059C51.8245 22.4059 51.8876 22.3886 51.9475 22.3542C52.0074 22.3191 52.0543 22.2702 52.0876 22.208C52.121 22.1451 52.1374 22.0802 52.1374 22.0118C52.1374 21.9435 52.1204 21.8776 52.0865 21.8147C52.0527 21.751 52.0057 21.7023 51.9448 21.6687C51.8846 21.6343 51.8229 21.617 51.7592 21.617ZM51.5603 22.2733V21.7644H51.7285C51.7857 21.7644 51.8275 21.7692 51.8529 21.7789C51.8786 21.788 51.8987 21.8043 51.9144 21.828C51.9298 21.8514 51.9375 21.876 51.9375 21.9024C51.9375 21.9395 51.9245 21.9721 51.8989 21.9995C51.8738 22.0269 51.8401 22.0427 51.7979 22.0457C51.8147 22.0533 51.8286 22.0624 51.8394 22.0726C51.8589 22.0927 51.883 22.1264 51.9115 22.1735L51.9713 22.2732H51.8748L51.8318 22.1931C51.7976 22.1299 51.7702 22.0906 51.7492 22.0746C51.7348 22.0629 51.7138 22.0571 51.686 22.0571H51.6399V22.2735L51.5603 22.2733ZM51.6393 21.9869H51.735C51.7808 21.9869 51.8117 21.9798 51.8282 21.9656C51.8448 21.9518 51.8535 21.9328 51.8535 21.9092C51.8535 21.8941 51.8496 21.8806 51.8416 21.8692C51.8336 21.857 51.8223 21.8483 51.8079 21.8421C51.7935 21.8364 51.7676 21.8334 51.729 21.8334H51.6394V21.9869" fill="white"/>
</g>
<rect x="66.8572" width="59.4286" height="37.1429" rx="10" fill="white"/>
<g clip-path="url(#clip1_57_195)">
<path d="M102.377 11.9053C99.4791 11.9053 96.8892 13.3353 96.8892 15.9773C96.8892 19.0073 101.483 19.2165 101.483 20.7387C101.483 21.3796 100.711 21.9533 99.3932 21.9533C97.5231 21.9533 96.1253 21.1517 96.1253 21.1517L95.5272 23.8178C95.5272 23.8178 97.1374 24.495 99.2752 24.495C102.444 24.495 104.937 22.9947 104.937 20.3075C104.937 17.1058 100.325 16.9028 100.325 15.49C100.325 14.9879 100.958 14.4378 102.272 14.4378C103.755 14.4378 104.964 15.0208 104.964 15.0208L105.549 12.4458C105.549 12.4458 104.233 11.9053 102.377 11.9053ZM75.8623 12.0996L75.7921 12.4883C75.7921 12.4883 77.0114 12.7007 78.1095 13.1245C79.5234 13.6104 79.6241 13.8932 79.8623 14.7718L82.4571 24.2945H85.9356L91.2944 12.0996H87.8239L84.3806 20.391L82.9755 13.3628C82.8466 12.5585 82.1939 12.0996 81.3949 12.0996H75.8623ZM92.6899 12.0996L89.9674 24.2945H93.2768L95.9897 12.0996H92.6899ZM111.148 12.0996C110.35 12.0996 109.927 12.5063 109.616 13.2171L104.768 24.2945H108.238L108.91 22.4483H113.138L113.546 24.2945H116.608L113.937 12.0996H111.148ZM111.599 15.3943L112.628 19.9704H109.872L111.599 15.3943Z" fill="#707070"/>
</g>
<rect x="133.714" width="59.4286" height="37.1429" rx="10" fill="white"/>
<path fill-rule="evenodd" clip-rule="evenodd" d="M146.197 12.754C146.594 12.7517 147.774 12.6474 148.274 14.3016C148.611 15.4159 149.148 17.2412 149.884 19.7774H150.183C150.973 17.1035 151.515 15.2783 151.81 14.3016C152.315 12.6302 153.578 12.754 154.083 12.754L157.981 12.754V24.6397H154.009V17.6353H153.742L151.528 24.6397H148.539L146.325 17.6301H146.059V24.6397H142.086V12.754L146.197 12.754ZM163.685 12.754V19.7637H164.002L166.695 13.9997C167.218 12.8526 168.332 12.754 168.332 12.754H172.176V24.6397H168.121V17.6301H167.804L165.164 23.3941C164.641 24.5359 163.474 24.6397 163.474 24.6397H159.63V12.754H163.685ZM186.193 18.4022C185.627 19.9737 183.851 21.0992 181.884 21.0992H177.632V24.6397H173.775V18.4022H186.193Z" fill="#707070"/>
<path fill-rule="evenodd" clip-rule="evenodd" d="M182.07 12.7539H173.573C173.775 15.4001 176.1 17.6654 178.506 17.6654H186.461C186.92 15.4661 185.34 12.7539 182.07 12.7539Z" fill="#707070"/>
<rect x="200.571" width="59.4286" height="37.1429" rx="10" fill="white"/>
<path d="M231.553 20.8301H222.857V18.0611H231.457C232.106 18.0611 232.637 17.9653 233.051 17.7738C233.466 17.5823 233.771 17.311 233.968 16.9599C234.165 16.6088 234.263 16.1938 234.263 15.715C234.263 15.2469 234.165 14.8239 233.968 14.4462C233.771 14.0685 233.471 13.7679 233.067 13.5445C232.664 13.321 232.159 13.2093 231.553 13.2093H228.604V26.7432H225.177V10.4004H231.553C232.844 10.4004 233.949 10.6318 234.869 11.0946C235.793 11.5522 236.5 12.1799 236.989 12.9779C237.478 13.7706 237.72 14.6696 237.714 15.6751C237.72 16.7285 237.472 17.6408 236.973 18.4122C236.473 19.1836 235.761 19.7794 234.837 20.1997C233.912 20.62 232.818 20.8301 231.553 20.8301ZM232.167 21.8835V24.6525H222.857V21.8835H232.167Z" fill="#707070"/>
<defs>
<clipPath id="clip0_57_195">
<rect width="47.5429" height="29.7143" fill="white" transform="translate(5.94287 3.71484)"/>
</clipPath>
<clipPath id="clip1_57_195">
<rect width="40.8571" height="12.6286" fill="white" transform="translate(75.7715 11.8857)"/>
</clipPath>
</defs>
</svg>
