<svg width="281" height="76" viewBox="0 0 281 76" fill="none" xmlns="http://www.w3.org/2000/svg">
<path d="M0 74.9886V1.01141H15.7099V62.0932H47.565V74.9886H0Z" fill="white"/>
<path d="M123.357 38C123.357 46.0672 121.821 52.9303 118.749 58.5894C115.702 64.2484 111.541 68.571 106.268 71.557C101.02 74.519 95.1179 76 88.5631 76C81.9599 76 76.0339 74.507 70.7852 71.5209C65.5364 68.5349 61.3883 64.2123 58.3406 58.5532C55.293 52.8942 53.7691 46.0431 53.7691 38C53.7691 29.9328 55.293 23.0697 58.3406 17.4107C61.3883 11.7516 65.5364 7.44107 70.7852 4.47909C76.0339 1.49303 81.9599 0 88.5631 0C95.1179 0 101.02 1.49303 106.268 4.47909C111.541 7.44107 115.702 11.7516 118.749 17.4107C121.821 23.0697 123.357 29.9328 123.357 38ZM107.429 38C107.429 32.7744 106.643 28.3676 105.071 24.7795C103.523 21.1914 101.334 18.4702 98.5042 16.616C95.6742 14.7617 92.3605 13.8346 88.5631 13.8346C84.7656 13.8346 81.4519 14.7617 78.622 16.616C75.792 18.4702 73.5909 21.1914 72.0187 24.7795C70.4707 28.3676 69.6967 32.7744 69.6967 38C69.6967 43.2256 70.4707 47.6325 72.0187 51.2205C73.5909 54.8086 75.792 57.5298 78.622 59.384C81.4519 61.2383 84.7656 62.1654 88.5631 62.1654C92.3605 62.1654 95.6742 61.2383 98.5042 59.384C101.334 57.5298 103.523 54.8086 105.071 51.2205C106.643 47.6325 107.429 43.2256 107.429 38Z" fill="white"/>
<path d="M184.265 24.924C183.757 23.166 183.043 21.6128 182.124 20.2643C181.205 18.8916 180.08 17.7357 178.75 16.7966C177.444 15.8333 175.944 15.0989 174.251 14.5932C172.582 14.0875 170.732 13.8346 168.7 13.8346C164.902 13.8346 161.564 14.7738 158.686 16.6521C155.832 18.5304 153.607 21.2636 152.01 24.8517C150.414 28.4157 149.616 32.7744 149.616 37.9278C149.616 43.0811 150.402 47.4639 151.974 51.076C153.546 54.6882 155.771 57.4455 158.65 59.3479C161.528 61.2262 164.927 62.1654 168.845 62.1654C172.4 62.1654 175.436 61.5393 177.952 60.2871C180.491 59.0108 182.426 57.2167 183.757 54.9049C185.111 52.5932 185.788 49.86 185.788 46.7053L188.981 47.1749H169.825V35.3992H200.918V44.7186C200.918 51.2205 199.539 56.8074 196.782 61.4791C194.024 66.1267 190.227 69.7148 185.389 72.2434C180.552 74.7478 175.013 76 168.772 76C161.806 76 155.687 74.4709 150.414 71.4126C145.141 68.3302 141.029 63.9594 138.078 58.3004C135.152 52.6172 133.688 45.8745 133.688 38.0722C133.688 32.076 134.559 26.73 136.3 22.0342C138.066 17.3143 140.533 13.3169 143.702 10.0418C146.87 6.76679 150.559 4.2744 154.768 2.56464C158.976 0.854879 163.536 0 168.446 0C172.654 0 176.573 0.614069 180.201 1.84221C183.829 3.04626 187.046 4.75602 189.852 6.97148C192.682 9.18694 194.992 11.8238 196.782 14.8821C198.572 17.9163 199.72 21.2636 200.228 24.924H184.265Z" fill="white"/>
<path d="M281 38C281 46.0672 279.464 52.9303 276.392 58.5894C273.345 64.2484 269.184 68.571 263.911 71.557C258.663 74.519 252.761 76 246.206 76C239.603 76 233.677 74.507 228.428 71.5209C223.179 68.5349 219.031 64.2123 215.984 58.5532C212.936 52.8942 211.412 46.0431 211.412 38C211.412 29.9328 212.936 23.0697 215.984 17.4107C219.031 11.7516 223.179 7.44107 228.428 4.47909C233.677 1.49303 239.603 0 246.206 0C252.761 0 258.663 1.49303 263.911 4.47909C269.184 7.44107 273.345 11.7516 276.392 17.4107C279.464 23.0697 281 29.9328 281 38ZM265.072 38C265.072 32.7744 264.286 28.3676 262.714 24.7795C261.166 21.1914 258.977 18.4702 256.147 16.616C253.317 14.7617 250.004 13.8346 246.206 13.8346C242.409 13.8346 239.095 14.7617 236.265 16.616C233.435 18.4702 231.234 21.1914 229.662 24.7795C228.114 28.3676 227.34 32.7744 227.34 38C227.34 43.2256 228.114 47.6325 229.662 51.2205C231.234 54.8086 233.435 57.5298 236.265 59.384C239.095 61.2383 242.409 62.1654 246.206 62.1654C250.004 62.1654 253.317 61.2383 256.147 59.384C258.977 57.5298 261.166 54.8086 262.714 51.2205C264.286 47.6325 265.072 43.2256 265.072 38Z" fill="white"/>
</svg>
