<svg width="35" height="34" viewBox="0 0 35 34" fill="none" xmlns="http://www.w3.org/2000/svg">
<g clip-path="url(#clip0_27_47)">
<path d="M17.2843 0H17.2758C7.90241 0 0.280029 7.6245 0.280029 17C0.280029 20.7188 1.47853 24.1655 3.5164 26.9641L1.39778 33.2796L7.93215 31.1908C10.6203 32.9715 13.8269 34 17.2843 34C26.6577 34 34.28 26.3734 34.28 17C34.28 7.62663 26.6577 0 17.2843 0ZM27.1762 24.0061C26.766 25.1642 25.1383 26.1248 23.8399 26.4052C22.9517 26.5944 21.7914 26.7453 17.8857 25.126C12.8898 23.0563 9.67253 17.9796 9.42178 17.6502C9.18165 17.3209 7.40303 14.9621 7.40303 12.5226C7.40303 10.0831 8.6419 8.89525 9.14128 8.38525C9.5514 7.96663 10.2293 7.77537 10.8795 7.77537C11.0899 7.77537 11.279 7.786 11.449 7.7945C11.9484 7.81575 12.1992 7.8455 12.5285 8.63388C12.9387 9.622 13.9374 12.0615 14.0564 12.3123C14.1775 12.563 14.2987 12.903 14.1287 13.2324C13.9693 13.5724 13.829 13.7232 13.5783 14.0122C13.3275 14.3012 13.0895 14.5223 12.8388 14.8325C12.6093 15.1024 12.35 15.3914 12.639 15.8907C12.928 16.3795 13.9268 18.0094 15.3973 19.3184C17.2949 21.0077 18.8334 21.5475 19.3838 21.777C19.7939 21.947 20.2827 21.9066 20.5823 21.5879C20.9627 21.1778 21.4323 20.4978 21.9104 19.8284C22.2504 19.3481 22.6797 19.2886 23.1302 19.4586C23.5892 19.618 26.018 20.8186 26.5174 21.0672C27.0168 21.318 27.3462 21.437 27.4673 21.6474C27.5863 21.8577 27.5863 22.8459 27.1762 24.0061Z" fill="white"/>
</g>
<defs>
<clipPath id="clip0_27_47">
<rect width="34" height="34" fill="white" transform="translate(0.280029)"/>
</clipPath>
</defs>
</svg>
