<svg width="26" height="26" viewBox="0 0 26 26" fill="none" xmlns="http://www.w3.org/2000/svg">
<path d="M12.4583 23.8333C10.8153 23.8333 9.41146 23.2691 8.24688 22.1406C7.08229 21.0122 6.5 19.6264 6.5 17.9833V6.3375C6.5 5.18195 6.91076 4.19792 7.73229 3.38542C8.55382 2.57292 9.54236 2.16667 10.6979 2.16667C11.8715 2.16667 12.8646 2.57292 13.6771 3.38542C14.4896 4.19792 14.8958 5.19098 14.8958 6.36459V17.0354C14.8958 17.7215 14.6611 18.3038 14.1917 18.7823C13.7222 19.2608 13.1444 19.5 12.4583 19.5C11.7722 19.5 11.1944 19.2427 10.725 18.7281C10.2556 18.2135 10.0208 17.6042 10.0208 16.9V6.28334H11.1042V16.9813C11.1042 17.3785 11.2351 17.717 11.4969 17.9969C11.7587 18.2767 12.0792 18.4167 12.4583 18.4167C12.8375 18.4167 13.158 18.2813 13.4198 18.0104C13.6816 17.7396 13.8125 17.4146 13.8125 17.0354V6.3375C13.8125 5.47084 13.5101 4.73959 12.9052 4.14375C12.3003 3.54792 11.5646 3.25001 10.6979 3.25001C9.83125 3.25001 9.09549 3.54792 8.49063 4.14375C7.88576 4.73959 7.58333 5.47084 7.58333 6.3375V18.0375C7.58333 19.3556 8.06181 20.4705 9.01875 21.3823C9.97569 22.2941 11.1222 22.75 12.4583 22.75C13.8125 22.75 14.9635 22.2896 15.9115 21.3688C16.8594 20.4479 17.3333 19.3194 17.3333 17.9833V6.28334H18.4167V17.9563C18.4167 19.5993 17.8344 20.9896 16.6698 22.1271C15.5052 23.2646 14.1014 23.8333 12.4583 23.8333Z" fill="#1A1714"/>
</svg>
